<?xml version="1.0" standalone="no"?>
<!DOCTYPE svg PUBLIC "-//W3C//DTD SVG 20010904//EN"
 "http://www.w3.org/TR/2001/REC-SVG-20010904/DTD/svg10.dtd">
<svg version="1.0" xmlns="http://www.w3.org/2000/svg"
 width="431.000000pt" height="83.000000pt" viewBox="0 0 431.000000 83.000000"
 preserveAspectRatio="xMidYMid meet">

<g transform="translate(0.000000,83.000000) scale(0.100000,-0.100000)"
fill="#000000" stroke="none">
<path d="M253 682 c-252 -90 -274 -412 -35 -529 49 -24 69 -28 142 -28 73 0
93 4 142 28 62 30 106 74 140 140 31 59 31 175 0 234 -56 107 -144 164 -265
170 -52 3 -86 -1 -124 -15z m322 -127 c0 -22 -31 -33 -47 -17 -17 17 -1 44 24
40 15 -2 23 -10 23 -23z m-117 -35 c6 0 12 -9 12 -20 0 -17 -7 -20 -45 -20
-59 0 -85 -25 -85 -80 0 -47 27 -80 65 -80 21 0 25 5 25 30 0 24 -4 30 -21 30
-14 0 -19 5 -17 18 2 12 15 18 46 20 l43 3 -3 -68 -3 -68 -57 -3 c-67 -3 -92
7 -118 51 -43 70 -10 161 65 184 22 6 49 10 60 8 11 -3 26 -5 33 -5z m-210
-106 c-3 -120 -12 -134 -81 -134 -31 0 -38 3 -35 17 2 10 12 19 23 21 40 8 45
21 45 113 l0 89 26 0 26 0 -4 -106z m330 -16 l-3 -113 -27 -3 -28 -3 0 115 0
116 30 0 31 0 -3 -112z"/>
<path d="M1030 536 c0 -131 -3 -166 -15 -176 -22 -19 -49 -8 -65 27 -14 32
-17 33 -60 27 -76 -10 -81 -12 -74 -42 11 -46 38 -84 74 -104 49 -27 176 -22
217 8 55 40 63 72 63 257 l0 167 -70 0 -70 0 0 -164z"/>
<path d="M1292 483 c-45 -120 -82 -222 -82 -226 0 -4 30 -7 67 -5 66 3 66 3
78 38 l12 35 80 3 80 3 12 -41 12 -40 69 0 c39 0 70 3 70 7 0 3 -37 104 -82
225 l-83 218 -76 0 -75 0 -82 -217z m183 13 l23 -76 -50 0 c-43 0 -50 2 -45
18 2 9 13 45 22 80 10 34 20 60 22 58 3 -2 15 -38 28 -80z"/>
<path d="M1750 475 l0 -225 65 0 65 0 0 225 0 225 -65 0 -65 0 0 -225z"/>
<path d="M1990 475 l0 -225 60 0 60 0 0 120 c0 66 3 120 8 120 4 -1 43 -54 87
-120 l80 -119 63 -1 62 0 0 225 0 225 -60 0 -60 0 0 -120 c0 -66 -3 -120 -7
-120 -5 1 -44 55 -88 120 l-80 120 -62 0 -63 0 0 -225z"/>
<path d="M2720 555 c-16 -19 -5 -34 36 -51 43 -18 45 -44 5 -44 -16 0 -31 6
-34 13 -2 6 -8 9 -12 4 -14 -13 12 -30 46 -30 30 0 52 18 46 38 -2 6 -19 18
-38 27 -19 10 -34 24 -34 30 0 19 31 21 49 3 13 -14 16 -14 16 -2 0 28 -59 37
-80 12z"/>
<path d="M2846 554 c-9 -8 -16 -31 -16 -49 0 -45 38 -74 75 -57 14 7 25 20 25
29 -1 17 -1 17 -11 1 -14 -25 -56 -23 -69 3 -27 49 21 99 61 63 20 -18 27 -6
7 14 -17 17 -54 15 -72 -4z"/>
<path d="M2963 510 c0 -36 2 -53 4 -37 4 23 9 27 38 27 29 0 34 -4 38 -27 2
-16 4 1 4 37 0 36 -2 53 -4 38 -4 -24 -9 -28 -38 -28 -29 0 -34 4 -38 28 -2
15 -4 -2 -4 -38z"/>
<path d="M3097 552 c-33 -36 -16 -93 30 -107 26 -7 73 32 73 62 0 54 -68 84
-103 45z m64 -2 c22 -12 26 -59 7 -78 -20 -20 -58 -14 -67 11 -9 23 -5 43 12
65 12 15 22 15 48 2z"/>
<path d="M3236 554 c-26 -26 -20 -81 10 -101 24 -15 29 -15 53 -2 32 18 41 77
16 103 -21 20 -59 21 -79 0z m68 -10 c20 -19 21 -58 2 -74 -43 -35 -99 28 -61
70 22 24 38 25 59 4z"/>
<path d="M3362 513 l-2 -63 38 2 c36 1 36 1 5 5 -31 4 -32 5 -36 61 l-3 57 -2
-62z"/>
<path d="M3506 548 c-23 -33 -19 -64 11 -87 42 -34 93 -7 93 49 0 55 -74 82
-104 38z m73 -2 c7 -8 11 -30 9 -48 -2 -26 -8 -34 -26 -36 -31 -5 -52 15 -52
47 0 46 43 69 69 37z"/>
<path d="M3641 508 c1 -35 4 -51 6 -36 3 22 10 28 36 31 l32 4 -32 1 c-28 2
-33 6 -33 26 0 21 5 25 38 29 l37 4 -42 1 -43 2 1 -62z"/>
<path d="M2738 373 c-21 -5 -31 -32 -18 -48 6 -7 24 -15 41 -19 22 -4 30 -11
27 -23 -5 -25 -36 -28 -59 -7 -20 18 -27 6 -7 -14 17 -17 63 -15 79 4 18 22 1
46 -39 56 -37 10 -44 38 -9 38 13 0 29 -6 36 -12 11 -11 13 -10 9 1 -5 17 -36
29 -60 24z"/>
<path d="M2859 366 c-30 -15 -39 -75 -14 -100 19 -19 56 -21 73 -4 20 20 13
32 -7 14 -40 -36 -88 14 -61 63 12 23 49 28 69 9 11 -11 13 -10 9 1 -6 22 -42
31 -69 17z"/>
<path d="M3272 364 c-25 -17 -31 -81 -10 -102 24 -24 88 -9 88 22 0 5 -9 1
-19 -8 -11 -10 -28 -16 -38 -14 -23 4 -41 53 -27 76 14 21 54 28 65 11 4 -8
10 -11 13 -8 8 8 -8 26 -29 33 -12 3 -30 -1 -43 -10z"/>
<path d="M3518 373 c-21 -5 -31 -32 -18 -48 6 -7 24 -15 41 -19 22 -4 30 -11
27 -23 -5 -25 -36 -28 -59 -7 -20 18 -27 6 -7 -14 17 -17 63 -15 79 4 18 22 1
46 -39 56 -37 10 -44 38 -9 38 13 0 29 -6 36 -12 11 -11 13 -10 9 1 -5 17 -36
29 -60 24z"/>
<path d="M2963 310 c0 -36 2 -50 4 -32 2 17 2 47 0 65 -2 17 -4 3 -4 -33z"/>
<path d="M3010 310 l0 -60 48 1 47 2 -40 6 c-31 5 -41 11 -43 28 -3 19 2 22
35 26 l38 4 -37 1 c-30 2 -38 6 -38 21 0 16 8 21 43 24 l42 4 -47 1 -48 2 0
-60z"/>
<path d="M3120 310 c0 -71 18 -81 22 -12 l3 47 30 -47 c17 -27 33 -48 38 -48
4 0 6 28 5 63 l-1 62 -6 -50 -6 -50 -30 47 c-41 66 -55 62 -55 -12z"/>
<path d="M3380 310 l0 -60 48 1 47 2 -40 6 c-31 5 -41 11 -43 28 -3 19 2 22
35 26 l38 4 -37 1 c-30 2 -38 6 -38 21 0 16 8 21 43 24 l42 4 -47 1 -48 2 0
-60z"/>
<path d="M810 160 l0 -40 135 0 135 0 0 40 0 40 -135 0 -135 0 0 -40z"/>
<path d="M2213 184 c-3 -8 3 -21 13 -30 18 -14 18 -15 -6 -8 -19 5 -22 4 -14
-6 14 -14 46 -10 51 7 2 6 -5 14 -16 18 -12 3 -21 10 -21 15 0 5 7 7 15 4 8
-4 15 -4 15 -1 0 14 -31 15 -37 1z"/>
<path d="M1124 176 c-3 -8 -4 -23 -1 -33 3 -11 5 -7 6 11 1 23 5 27 21 23 11
-3 18 -1 14 4 -8 14 -34 11 -40 -5z"/>
<path d="M1198 183 c6 -2 18 -2 25 0 6 3 1 5 -13 5 -14 0 -19 -2 -12 -5z"/>
<path d="M1258 183 c6 -2 18 -2 25 0 6 3 1 5 -13 5 -14 0 -19 -2 -12 -5z"/>
<path d="M1310 185 c0 -5 5 -17 10 -25 5 -8 10 -10 10 -5 0 6 -5 17 -10 25 -5
8 -10 11 -10 5z"/>
<path d="M1381 158 c2 -30 2 -30 6 -6 2 15 12 29 21 31 12 3 10 5 -5 6 -20 1
-23 -4 -22 -31z"/>
<path d="M1441 158 c2 -30 2 -31 6 -5 3 16 11 27 20 27 11 0 14 -7 10 -26 -3
-16 -1 -22 5 -16 16 16 4 47 -20 50 -19 3 -22 -1 -21 -30z"/>
<path d="M1536 182 c7 -4 14 -18 17 -32 l4 -25 2 27 c0 14 7 29 14 31 6 3 -1
6 -18 6 -16 0 -25 -3 -19 -7z"/>
<path d="M1597 183 c-3 -5 5 -8 18 -8 13 0 21 3 18 8 -2 4 -10 7 -18 7 -8 0
-16 -3 -18 -7z"/>
<path d="M1702 184 c9 -3 19 -13 22 -22 3 -12 4 -12 3 3 -1 12 -10 21 -22 22
-15 1 -15 0 -3 -3z"/>
<path d="M1758 183 c6 -2 18 -2 25 0 6 3 1 5 -13 5 -14 0 -19 -2 -12 -5z"/>
<path d="M1831 163 c-1 -29 2 -33 24 -33 22 0 25 4 24 33 -2 30 -2 30 -6 5 -2
-16 -10 -28 -18 -28 -8 0 -16 12 -18 28 -4 25 -4 25 -6 -5z"/>
<path d="M1901 158 c0 -18 3 -26 6 -18 3 8 10 18 16 21 5 4 6 12 3 18 -14 21
-26 11 -25 -21z"/>
<path d="M1951 178 c0 -9 -7 -18 -13 -21 -10 -4 -10 -7 -1 -18 17 -18 25 -6
20 28 -2 15 -5 21 -6 11z"/>
<path d="M1972 160 c0 -19 2 -27 5 -17 2 9 2 25 0 35 -3 9 -5 1 -5 -18z"/>
<path d="M2001 179 c-1 -17 25 -57 32 -49 3 3 8 19 12 35 6 29 6 29 -8 7 l-13
-23 -12 23 c-7 15 -11 18 -11 7z"/>
<path d="M2070 160 c0 -26 3 -30 28 -29 l27 1 -25 7 c-24 7 -24 7 -5 19 l20
11 -20 2 c-17 1 -16 2 5 9 l25 8 -27 1 c-25 1 -28 -3 -28 -29z"/>
<path d="M2130 160 c0 -30 14 -40 24 -17 5 10 7 10 12 0 10 -22 19 -14 21 17
2 27 -1 30 -27 30 -27 0 -30 -3 -30 -30z m45 10 c-3 -5 -10 -10 -16 -10 -5 0
-9 5 -9 10 0 6 7 10 16 10 8 0 12 -4 9 -10z"/>
<path d="M2272 160 c0 -19 2 -27 5 -17 2 9 2 25 0 35 -3 9 -5 1 -5 -18z"/>
<path d="M2308 160 c2 -16 8 -30 12 -30 4 0 10 14 12 30 4 23 1 30 -12 30 -13
0 -16 -7 -12 -30z"/>
<path d="M2360 187 c0 -2 6 -16 13 -30 l13 -25 11 29 c6 16 7 29 2 29 -5 0 -9
-5 -9 -11 0 -8 -5 -8 -15 1 -8 7 -15 10 -15 7z"/>
<path d="M1358 155 c2 -14 6 -25 8 -25 2 0 4 11 4 25 0 14 -4 25 -9 25 -4 0
-6 -11 -3 -25z"/>
</g>
</svg>
