<svg id="visual" viewBox="0 0 960 300" width="960" height="300" xmlns="http://www.w3.org/2000/svg" xmlns:xlink="http://www.w3.org/1999/xlink" version="1.1"><rect x="0" y="0" width="960" height="300" fill="#2f2f2f"></rect><path d="M0 175L22.8 175.8C45.7 176.7 91.3 178.3 137 185.2C182.7 192 228.3 204 274 204.7C319.7 205.3 365.3 194.7 411.2 188.5C457 182.3 503 180.7 548.8 180.7C594.7 180.7 640.3 182.3 686 185.8C731.7 189.3 777.3 194.7 823 196.2C868.7 197.7 914.3 195.3 937.2 194.2L960 193L960 301L937.2 301C914.3 301 868.7 301 823 301C777.3 301 731.7 301 686 301C640.3 301 594.7 301 548.8 301C503 301 457 301 411.2 301C365.3 301 319.7 301 274 301C228.3 301 182.7 301 137 301C91.3 301 45.7 301 22.8 301L0 301Z" fill="#ff6047"></path><path d="M0 216L22.8 217.5C45.7 219 91.3 222 137 221.7C182.7 221.3 228.3 217.7 274 218.5C319.7 219.3 365.3 224.7 411.2 225.2C457 225.7 503 221.3 548.8 217.3C594.7 213.3 640.3 209.7 686 209.8C731.7 210 777.3 214 823 214.8C868.7 215.7 914.3 213.3 937.2 212.2L960 211L960 301L937.2 301C914.3 301 868.7 301 823 301C777.3 301 731.7 301 686 301C640.3 301 594.7 301 548.8 301C503 301 457 301 411.2 301C365.3 301 319.7 301 274 301C228.3 301 182.7 301 137 301C91.3 301 45.7 301 22.8 301L0 301Z" fill="#ff7f3a"></path><path d="M0 244L22.8 240.5C45.7 237 91.3 230 137 227.3C182.7 224.7 228.3 226.3 274 230.3C319.7 234.3 365.3 240.7 411.2 239C457 237.3 503 227.7 548.8 228.5C594.7 229.3 640.3 240.7 686 245.5C731.7 250.3 777.3 248.7 823 249C868.7 249.3 914.3 251.7 937.2 252.8L960 254L960 301L937.2 301C914.3 301 868.7 301 823 301C777.3 301 731.7 301 686 301C640.3 301 594.7 301 548.8 301C503 301 457 301 411.2 301C365.3 301 319.7 301 274 301C228.3 301 182.7 301 137 301C91.3 301 45.7 301 22.8 301L0 301Z" fill="#fe9d32"></path><path d="M0 249L22.8 249.7C45.7 250.3 91.3 251.7 137 251C182.7 250.3 228.3 247.7 274 249.7C319.7 251.7 365.3 258.3 411.2 258.2C457 258 503 251 548.8 246.8C594.7 242.7 640.3 241.3 686 241.3C731.7 241.3 777.3 242.7 823 244C868.7 245.3 914.3 246.7 937.2 247.3L960 248L960 301L937.2 301C914.3 301 868.7 301 823 301C777.3 301 731.7 301 686 301C640.3 301 594.7 301 548.8 301C503 301 457 301 411.2 301C365.3 301 319.7 301 274 301C228.3 301 182.7 301 137 301C91.3 301 45.7 301 22.8 301L0 301Z" fill="#f7b934"></path><path d="M0 263L22.8 265.5C45.7 268 91.3 273 137 274.7C182.7 276.3 228.3 274.7 274 272.3C319.7 270 365.3 267 411.2 265.7C457 264.3 503 264.7 548.8 267C594.7 269.3 640.3 273.7 686 274.2C731.7 274.7 777.3 271.3 823 271C868.7 270.7 914.3 273.3 937.2 274.7L960 276L960 301L937.2 301C914.3 301 868.7 301 823 301C777.3 301 731.7 301 686 301C640.3 301 594.7 301 548.8 301C503 301 457 301 411.2 301C365.3 301 319.7 301 274 301C228.3 301 182.7 301 137 301C91.3 301 45.7 301 22.8 301L0 301Z" fill="#ecd444"></path></svg>