<svg id="visual" viewBox="0 0 960 540" width="960" height="540" xmlns="http://www.w3.org/2000/svg" xmlns:xlink="http://www.w3.org/1999/xlink" version="1.1"><rect x="0" y="0" width="960" height="540" fill="#2f2f2f"></rect><path d="M0 335L22.8 341.5C45.7 348 91.3 361 137 366.5C182.7 372 228.3 370 274 374.3C319.7 378.7 365.3 389.3 411.2 381.3C457 373.3 503 346.7 548.8 343.2C594.7 339.7 640.3 359.3 686 373.2C731.7 387 777.3 395 823 390.5C868.7 386 914.3 369 937.2 360.5L960 352L960 541L937.2 541C914.3 541 868.7 541 823 541C777.3 541 731.7 541 686 541C640.3 541 594.7 541 548.8 541C503 541 457 541 411.2 541C365.3 541 319.7 541 274 541C228.3 541 182.7 541 137 541C91.3 541 45.7 541 22.8 541L0 541Z" fill="#ff6047"></path><path d="M0 354L22.8 361C45.7 368 91.3 382 137 394.7C182.7 407.3 228.3 418.7 274 421.3C319.7 424 365.3 418 411.2 406C457 394 503 376 548.8 377C594.7 378 640.3 398 686 397.5C731.7 397 777.3 376 823 373.5C868.7 371 914.3 387 937.2 395L960 403L960 541L937.2 541C914.3 541 868.7 541 823 541C777.3 541 731.7 541 686 541C640.3 541 594.7 541 548.8 541C503 541 457 541 411.2 541C365.3 541 319.7 541 274 541C228.3 541 182.7 541 137 541C91.3 541 45.7 541 22.8 541L0 541Z" fill="#ff7f3a"></path><path d="M0 459L22.8 458C45.7 457 91.3 455 137 446.7C182.7 438.3 228.3 423.7 274 424.5C319.7 425.3 365.3 441.7 411.2 446.5C457 451.3 503 444.7 548.8 444C594.7 443.3 640.3 448.7 686 446.2C731.7 443.7 777.3 433.3 823 433.7C868.7 434 914.3 445 937.2 450.5L960 456L960 541L937.2 541C914.3 541 868.7 541 823 541C777.3 541 731.7 541 686 541C640.3 541 594.7 541 548.8 541C503 541 457 541 411.2 541C365.3 541 319.7 541 274 541C228.3 541 182.7 541 137 541C91.3 541 45.7 541 22.8 541L0 541Z" fill="#fe9d32"></path><path d="M0 435L22.8 440.7C45.7 446.3 91.3 457.7 137 459.7C182.7 461.7 228.3 454.3 274 450.2C319.7 446 365.3 445 411.2 444.3C457 443.7 503 443.3 548.8 444.3C594.7 445.3 640.3 447.7 686 453.2C731.7 458.7 777.3 467.3 823 467.5C868.7 467.7 914.3 459.3 937.2 455.2L960 451L960 541L937.2 541C914.3 541 868.7 541 823 541C777.3 541 731.7 541 686 541C640.3 541 594.7 541 548.8 541C503 541 457 541 411.2 541C365.3 541 319.7 541 274 541C228.3 541 182.7 541 137 541C91.3 541 45.7 541 22.8 541L0 541Z" fill="#f7b934"></path><path d="M0 491L22.8 488.5C45.7 486 91.3 481 137 483C182.7 485 228.3 494 274 498.5C319.7 503 365.3 503 411.2 501.7C457 500.3 503 497.7 548.8 498.8C594.7 500 640.3 505 686 505.7C731.7 506.3 777.3 502.7 823 502C868.7 501.3 914.3 503.7 937.2 504.8L960 506L960 541L937.2 541C914.3 541 868.7 541 823 541C777.3 541 731.7 541 686 541C640.3 541 594.7 541 548.8 541C503 541 457 541 411.2 541C365.3 541 319.7 541 274 541C228.3 541 182.7 541 137 541C91.3 541 45.7 541 22.8 541L0 541Z" fill="#ecd444"></path></svg>