<svg id="visual" viewBox="0 0 960 540" width="960" height="540" xmlns="http://www.w3.org/2000/svg" xmlns:xlink="http://www.w3.org/1999/xlink" version="1.1"><rect x="0" y="0" width="960" height="540" fill="#ECD444"></rect><path d="M0 361L22.8 358C45.7 355 91.3 349 137 350.2C182.7 351.3 228.3 359.7 274 376.7C319.7 393.7 365.3 419.3 411.2 422.2C457 425 503 405 548.8 387.2C594.7 369.3 640.3 353.7 686 367.2C731.7 380.7 777.3 423.3 823 424.7C868.7 426 914.3 386 937.2 366L960 346L960 541L937.2 541C914.3 541 868.7 541 823 541C777.3 541 731.7 541 686 541C640.3 541 594.7 541 548.8 541C503 541 457 541 411.2 541C365.3 541 319.7 541 274 541C228.3 541 182.7 541 137 541C91.3 541 45.7 541 22.8 541L0 541Z" fill="#274C77" stroke-linecap="round" stroke-linejoin="miter"></path></svg>